<svg id="Capa_1" data-name="Capa 1" xmlns="http://www.w3.org/2000/svg" viewBox="0 0 292.49 160.69"><defs><style>.cls-1{fill:#010101;}</style></defs><g id="Capa_1-2" data-name="Capa 1"><path class="cls-1" d="M337.49,113c.15,5.38-.3,10.73-.37,16.1,0,1.15.08,1.89,1.49,1.08,11.8-6.75,23-14.31,31.9-24.74a21.59,21.59,0,0,0,3.67-6c1.41-3.57.31-6.65-3.15-8.64a22.19,22.19,0,0,0-9.56-2.65,60.23,60.23,0,0,0-30,5.86c-3.31,1.54-6.29,3.44-7.87,7-.34.73-.92,1.5-1.89,1s-.7-1.36-.36-2.11a12.8,12.8,0,0,1,4.85-5.48c6.24-4.2,13.25-6.55,20.56-8,7.82-1.59,15.67-2,23.43.42a18.07,18.07,0,0,1,1.74.63C378.08,90.15,380,95,377,101c-3.6,7.36-9.09,13.18-15.6,18.06-6.32,4.78-13.24,8.62-20.16,12.42-1,.54-1.89,1.14-2.86,1.73-.36.22-.86.44-.7,1s.7.39,1.12.44a34,34,0,0,1,13.72,4.14c7.72,4.59,11.95,11.75,14.71,20a44.84,44.84,0,0,1,1.26,22.64c0,.24-.12.48-.18.72-.19.89-.53,1.89-1.59,1.68s-.84-1.29-.73-2.13c1.77-13.16-1.26-25-9.95-35.18-4.59-5.37-10.69-7.73-17.53-8.66a1.29,1.29,0,0,0-1.68,1.25,13.27,13.27,0,0,0-.08,1.66l-.39,30a11.49,11.49,0,0,1-.15,2A1.26,1.26,0,0,1,335,173.9c-.77,0-1-.63-1-1.31-.09-1.35-.24-2.71-.25-4.06-.06-9.43-.07-18.87-.11-28.33,0-2.41-.29-2.66-2.69-2.45s-4.31,1.46-6.46,2.19a18,18,0,0,1-2.48.72,1.4,1.4,0,0,1-1.71-.77,1.5,1.5,0,0,1,.63-1.79,13,13,0,0,1,5.55-2.42,25,25,0,0,0,5.26-1.74,3,3,0,0,0,2-3c.27-10.17.85-20.34.31-30.53A10.07,10.07,0,0,1,334.1,98a1.46,1.46,0,0,1,1.38-1.29c.86-.06,1.16.56,1.32,1.25a36.27,36.27,0,0,1,.69,8.31Z" transform="translate(-136.59 -67.5)"/><path class="cls-1" d="M205.79,123.13c-.1,2.71.22,7.71-.27,12.7-.11,1.16,0,2.13,1.53,2.2a.78.78,0,0,1,.75.7c0,.53-.3.79-.76.89-1.67.36-1.82,1.7-1.88,3-.3,5.67-.53,11.33-.82,17q-.12,2.58-.39,5.16c-.09.86-.26,1.89-1.37,1.89s-1.26-1.09-1.29-1.89c0-3.4-.17-6.8.07-10.18.25-3.71.25-7.41.2-11.1-.05-2.9-.48-3.37-3.44-3.21-6.77.38-13.55.88-20.32,1.36-5.66.39-11.32.91-17,1.17a3,3,0,0,0-3.19,2.37A188,188,0,0,0,152.82,164a15.79,15.79,0,0,1-1.36,4.78c-.49.85-1.14,1.63-2.2,1.33s-.85-1.35-.76-2.19a104.26,104.26,0,0,1,4-17.3c.54-1.83,1.16-3.64,1.72-5.48.5-1.69.25-1.89-1.56-1.74-4.4.35-8.86.69-13.29.94-1,.06-2.7.4-2.74-1s1.62-1,2.58-1.05c4.3-.38,8.61-.75,12.92-1,3.4-.2,3.72-.35,4.94-3.61a213.76,213.76,0,0,1,18.12-37.87c3.71-6,7.78-11.75,13.29-16.3,2-1.66,4.19-3,7-3.07a5.64,5.64,0,0,1,4.81,2.3c3,3.87,3.84,8.49,4.5,13.15C205.89,104.17,205.94,112.51,205.79,123.13Zm-3.87,3c0-8.4-.15-16.79-.77-25.16a49.13,49.13,0,0,0-2.4-13.25c-2.07-5.69-4.86-6.36-9.2-2.17a69.64,69.64,0,0,0-11.62,15.52,240.07,240.07,0,0,0-16.75,36.48c-.8,2.15-.72,2.32,1.65,2.2,9.8-.49,19.61-1,29.41-1.59,2.4-.16,4.81-.22,7.21-.36,1.84-.12,2.6-.84,2.52-2.78-.16-3-.05-5.93-.05-8.89Z" transform="translate(-136.59 -67.5)"/><path class="cls-1" d="M385.88,143.28a45.34,45.34,0,0,1,.85-9.93,2.85,2.85,0,0,0-1.3-3.34,19.89,19.89,0,0,1-9.49-15.15c-1.78-14.84,9.11-30.62,23.62-34.34,10.36-2.68,19.38,1.26,24.58,10.7,4.13,7.49,5.26,15.63,4.87,24a66.93,66.93,0,0,1-7.67,28.93c-3.37,6.29-7.22,12.24-13,16.68a19,19,0,0,1-6.36,3.34c-5.45,1.56-9.91-.19-12.79-5.09a27.53,27.53,0,0,1-3.31-12.22C385.81,145.64,385.88,144.46,385.88,143.28Zm39.31-29.87c0-1.54.12-3.1,0-4.63-.58-6.34-2.08-12.35-5.59-17.81-6.63-10.29-18.48-10.45-26-5.41-10.07,6.67-15.23,16-14.13,28.24A19.18,19.18,0,0,0,386,126.5c1.44,1.31,1.74,1.18,2.31-.63.51-1.59,1-3.19,1.54-4.76a46.87,46.87,0,0,1,7.42-13.8,8.26,8.26,0,0,1,3-2.65c.5-.22,1.12-.44,1.5.18s-.11.94-.44,1.29c-5.52,5.92-8.29,13.21-10.36,20.84-.63,2.45-.49,2.66,1.89,3.45a21.34,21.34,0,0,0,11.7.19c.77-.18,2-.79,2.29.29.34,1.26-1.11,1.21-1.89,1.48a22.58,22.58,0,0,1-13.32.44c-1.35-.37-1.89-.08-2.11,1.33a51.75,51.75,0,0,0-.45,13.84,20.29,20.29,0,0,0,3.54,10.4c2.74,3.73,6.46,4.64,10.61,2.6a22.26,22.26,0,0,0,7.15-6.08C420.44,142.88,425.08,129,425.19,113.41Z" transform="translate(-136.59 -67.5)"/><path class="cls-1" d="M221.72,103c-.06,5.94,2.05,10.61,5,15,5.15,7.54,11.8,13.75,18.36,20,5.13,4.9,10.3,9.78,14.58,15.49a24.51,24.51,0,0,1,4.41,8.28,6.42,6.42,0,0,1-2.71,7.45c-3.35,2.44-7.15,2.88-11.12,2.62a23.77,23.77,0,0,1-15.93-7.33c-4.36-4.4-5.45-9.6-4.06-15.52a26.38,26.38,0,0,1,6.08-11.7c1.13-1.26.88-2-.2-3a93.86,93.86,0,0,1-12.49-14.37c-3.59-5.28-6-11.15-5.46-17.86a27.08,27.08,0,0,1,5.59-13.71c7.48-10.19,17.06-17.43,29.62-20.2,12-2.62,22.31,3.31,25.71,14.58a9.9,9.9,0,0,1,.5,3.28c-.05,1-.41,1.73-1.42,1.89s-1.26-.72-1.46-1.52a21.28,21.28,0,0,0-7.19-12c-4.91-4.15-10.54-5.15-16.68-3.65-13.69,3.33-23.2,11.83-29.46,24.19A16.15,16.15,0,0,0,221.72,103Zm31.74,66.46a33.88,33.88,0,0,0,4-.78c2.71-.83,3.69-2.62,3.11-5.39a19.87,19.87,0,0,0-4.14-8c-4.74-6.19-10.34-11.56-16-16.87-1-1-1.7-.59-2.39.37a26.07,26.07,0,0,0-4.35,10.5c-.77,4-.5,7.89,2,11.28C240,166.34,246.08,168.82,253.46,169.44Z" transform="translate(-136.59 -67.5)"/><path class="cls-1" d="M343.33,82c1.29.11,2.59.19,3.88.33.76.08,1.81,0,1.75,1.14s-1,.9-1.74.94l-10.16.66c-9.06.63-18,2.08-26.95,3.59a19.3,19.3,0,0,1-2.92.47c-2,0-2.52,1-2.31,2.86a190.44,190.44,0,0,1,.63,24.59c-.28,10-.33,20-1.05,30-.51,6.91-1.16,13.88-1.76,20.81a5.86,5.86,0,0,1-.3,1.44,1.49,1.49,0,0,1-1.73,1.08c-.93-.13-1.22-.75-1.17-1.58.14-2.71.25-5.42.45-8.13q.94-12.56,1.14-25.13c.16-10.18.47-20.35.56-30.53,0-4.18-.39-8.37-.56-12.58,0-1.47-.69-1.65-2-1.4-10.61,2-21.24,3.9-31.86,5.87a7.65,7.65,0,0,1-2.57.13c-.63-.1-1.32-.19-1.36-1s.57-1,1.15-1.26a6.87,6.87,0,0,1,1.26-.33c13.95-2.6,27.88-5.32,41.86-7.75C319.36,84.15,331.2,82.09,343.33,82Z" transform="translate(-136.59 -67.5)"/><path class="cls-1" d="M204.19,213.79c0-3.77.06-7.54,0-11.28,0-1.64.44-2.4,2.2-2.3,2.7.17,5.42-.17,8.12.3,3.91.69,6.37,2.87,6.58,6,.27,3.77-1.63,6.42-5.53,7.71-1.92.62-1.93.62-.63,2.3,2.44,3.09,4.91,6.18,7.35,9.27.26.33.71.63.52,1.11s-.72.38-1.15.42a3.77,3.77,0,0,1-3.82-1.59c-2.47-3.32-5.11-6.5-7.69-9.73-.46-.58-.88-1.31-1.78-1s-.63,1.26-.63,1.89c0,2.65,0,5.3,0,8,0,1.25.12,2.51-1.79,2.51s-1.7-1.36-1.7-2.58C204.19,221.07,204.19,217.43,204.19,213.79Zm3.51-6.14h0a12.18,12.18,0,0,0,0,1.48c.16,1.5-.75,3.59.46,4.4,1.58,1,3.74.24,5.55-.31,2.86-.87,4.1-3.15,3.77-6.59a5.16,5.16,0,0,0-4.78-5,35.09,35.09,0,0,0-3.7-.1c-.95,0-1.32.47-1.31,1.37,0,1.56,0,3.17,0,4.78Z" transform="translate(-136.59 -67.5)"/><path class="cls-1" d="M381.81,227.28a2,2,0,0,1-2.12-1.42c-1.06-2.56-2.24-5.07-3.26-7.65a2.16,2.16,0,0,0-2.34-1.6c-2.28.08-4.57.08-6.84,0a2.2,2.2,0,0,0-2.36,1.61c-1.09,2.61-2.29,5.18-3.46,7.76-.25.54-.47,1.39-1.26,1s-.1-1,.1-1.45q5.37-12.08,10.77-24.15c.21-.47.27-1.25.95-1.2s.63.69.84,1.12l10.47,24.28C384.09,227.37,382.84,227.2,381.81,227.28Zm-11.15-11.89h3c1,0,1.51-.26,1-1.4-1.09-2.42-2.11-4.86-3.15-7.3-.14-.34-.25-.79-.63-.83-.55-.05-.63.52-.79.88Q369,209,368,211.3c-1.81,4.09-1.8,4.09,2.65,4.09Z" transform="translate(-136.59 -67.5)"/><path class="cls-1" d="M283,228.18a12.05,12.05,0,0,1-5.89-1.35c-.52-.27-1.39-.63-1.06-1.26.42-.89,1.06,0,1.51.21a10.28,10.28,0,0,0,7.67,1.09,5.36,5.36,0,0,0,4.17-4.67,5.18,5.18,0,0,0-2.84-5.73c-1.8-.94-3.7-1.69-5.55-2.51-4-1.83-5.66-4.82-4.8-8.71.76-3.33,4.24-5.81,8.14-5.72a12.28,12.28,0,0,1,4.84,1.12c.48.22,1.26.47.92,1.13s-.88.08-1.29-.09a10.88,10.88,0,0,0-4.87-.93c-2.51.12-4.32,1.37-4.92,3.47a5,5,0,0,0,2.09,5.84c2,1.43,4.44,2.13,6.63,3.26,5.22,2.7,6.11,9.09,1.77,12.7A9.76,9.76,0,0,1,283,228.18Z" transform="translate(-136.59 -67.5)"/><path class="cls-1" d="M160.45,214.45a30.54,30.54,0,0,0,.34,3.58c1.58,7.6,9,11,16.46,7.55.63-.29,1.58-1.36,2-.44s-1,1.26-1.71,1.52a16.24,16.24,0,0,1-14.15-.71c-5-2.65-6.72-7.29-6.44-12.6.57-10.83,11.63-17.07,21.46-12.26.49.23,1.26.46.95,1.12s-1,.14-1.4-.05a15.64,15.64,0,0,0-8.55-1c-4.75.63-8.34,4.72-8.81,9.86C160.52,212.06,160.52,213.12,160.45,214.45Z" transform="translate(-136.59 -67.5)"/><path class="cls-1" d="M324.29,214.26c0-3.64-.06-7.28,0-10.93,0-1.48-.53-2-2-1.88s-3.09,0-4.63,0c-.51,0-1.31.15-1.26-.63,0-.59.75-.52,1.22-.53h16.5c.53,0,1.37-.14,1.39.54,0,.89-.9.63-1.44.63-1.49,0-3,.09-4.45,0s-1.93.53-1.89,2c.05,7.22,0,14.46,0,21.66,0,.89.22,1.89-1.13,2.17-1.58.31-2.33-.23-2.35-1.88C324.29,221.67,324.32,218,324.29,214.26Z" transform="translate(-136.59 -67.5)"/><path class="cls-1" d="M408.22,213.76V202.28c0-1.33.37-2.08,1.88-2.05s1.6,1,1.6,2.1v20.91c0,2.86,0,2.86,2.95,2.86h6.29c.41,0,1-.08,1,.51s-.55.63-1,.63H409.54c-1.34,0-1.32-1.05-1.32-2C408.22,221.41,408.21,217.58,408.22,213.76Z" transform="translate(-136.59 -67.5)"/><path class="cls-1" d="M247.93,213.78V202.31c0-1.32.27-2.11,1.83-2.1s1.7.83,1.69,2v22.93c0,1.31-.29,2.13-1.83,2.1s-1.7-.82-1.69-2C248,221.42,247.93,217.6,247.93,213.78Z" transform="translate(-136.59 -67.5)"/><path class="cls-1" d="M262.85,183.47h94.34c.93,0,2.58-.63,2.62.83s-1.65,1.12-2.66,1.12q-94.26,0-188.53,0c-1,0-2.69.45-2.59-1.16.08-1.42,1.71-.78,2.64-.78Q215.76,183.45,262.85,183.47Z" transform="translate(-136.59 -67.5)"/><path class="cls-1" d="M385.57,183.47h9.19c.63,0,1.56-.18,1.56.89s-.86,1-1.53,1H376.4c-.67,0-1.55,0-1.56-1s.87-.93,1.53-.93Z" transform="translate(-136.59 -67.5)"/><polygon class="cls-1" points="273.67 107.61 275.52 113.31 281.52 113.31 276.67 116.84 278.52 122.53 273.67 119.01 268.82 122.53 270.67 116.84 265.82 113.31 271.82 113.31 273.67 107.61"/></g></svg>