<?xml version="1.0" encoding="utf-8"?>
<!-- Generator: Adobe Illustrator 25.0.0, SVG Export Plug-In . SVG Version: 6.00 Build 0)  -->
<svg version="1.1" id="Capa_1" xmlns="http://www.w3.org/2000/svg" xmlns:xlink="http://www.w3.org/1999/xlink" x="0px" y="0px"
	 viewBox="0 0 371.95 80.83" style="enable-background:new 0 0 371.95 80.83;" xml:space="preserve">
<style type="text/css">
	.st0{fill:#FFFFFF;}
</style>
<g>
	<g>
		<path d="M45.17,14.62v31.54h4.88v1.95H35.54v-1.95h4.88V14.62h-4.88v-1.95h14.52v1.95H45.17z"/>
		<path d="M62.86,28.75h3.2c1.09,0,2-0.04,2.73-0.12s1.32-0.31,1.77-0.7s0.78-0.98,1.01-1.78c0.23-0.8,0.39-1.94,0.49-3.4h1.73
			v14.44h-1.73c-0.08-1.48-0.22-2.65-0.42-3.5c-0.19-0.85-0.51-1.5-0.95-1.94c-0.44-0.44-1.03-0.71-1.77-0.83
			c-0.74-0.11-1.7-0.17-2.87-0.17h-3.2v15.42h6.46c1.27,0,2.38-0.05,3.34-0.15c0.96-0.1,1.8-0.28,2.51-0.54
			c0.72-0.26,1.33-0.63,1.84-1.1c0.51-0.47,0.96-1.08,1.33-1.83s0.69-1.66,0.95-2.73c0.26-1.07,0.5-2.34,0.73-3.81h1.71l-0.49,12.1
			H53.22v-1.95h4.88V14.62h-4.88v-1.95h27.42l0.49,9.78h-1.71c-0.24-1.63-0.55-2.95-0.9-3.96c-0.36-1.02-0.86-1.81-1.5-2.39
			c-0.64-0.58-1.48-0.97-2.51-1.17c-1.03-0.2-2.34-0.31-3.92-0.31h-7.73V28.75z"/>
		<path d="M116.62,48.49h-1.95l-21.1-32.71l-0.12,0.02v30.37h4.39v1.95H86.37v-1.95h4.88V14.62h-4.88v-1.95h10.9l17.03,26.39
			l0.12-0.02V14.62h-4.88v-1.95h11.95v1.95h-4.88V48.49z"/>
		<path d="M124.19,48.12v-1.95h4.88V14.62h-4.88v-1.95h14.73c3.29,0,6.04,0.41,8.26,1.22s4,1.97,5.35,3.48
			c1.35,1.5,2.31,3.32,2.89,5.45c0.58,2.13,0.87,4.51,0.87,7.15c0,1.53-0.1,3.04-0.3,4.53c-0.2,1.49-0.56,2.9-1.06,4.24
			s-1.18,2.59-2.04,3.73c-0.85,1.15-1.94,2.14-3.26,2.98s-2.89,1.49-4.71,1.96c-1.82,0.47-3.94,0.71-6.37,0.71H124.19z
			 M133.82,46.17h4.42c2.5,0,4.58-0.24,6.23-0.73c1.65-0.49,2.96-1.34,3.92-2.56c0.96-1.22,1.63-2.87,2.02-4.95
			c0.39-2.08,0.59-4.72,0.59-7.9c0-1.74-0.06-3.33-0.18-4.78s-0.35-2.74-0.67-3.88c-0.33-1.14-0.78-2.13-1.35-2.98
			c-0.58-0.84-1.32-1.54-2.22-2.1c-0.9-0.55-2-0.97-3.28-1.24s-2.8-0.42-4.54-0.42h-4.93V46.17z"/>
	</g>
</g>
<g>
	<g>
		<path d="M2.43,12.45h28.75l0.59,10.57h-1.72c-0.23-1.83-0.52-3.31-0.88-4.44c-0.36-1.13-0.87-2-1.53-2.61
			c-0.66-0.61-1.52-1.03-2.56-1.24c-1.05-0.21-2.36-0.32-3.95-0.32h-1.99v31.72h5.4v1.96H8.95v-1.96h5.4V14.41h-1.86
			c-1.06,0-2,0.04-2.82,0.12C8.85,14.62,8.13,14.77,7.52,15c-0.61,0.23-1.14,0.55-1.58,0.96c-0.44,0.41-0.82,0.93-1.13,1.57
			s-0.58,1.41-0.8,2.31c-0.22,0.9-0.41,1.96-0.58,3.19H1.72L2.43,12.45z"/>
	</g>
</g>
<g>
	<path d="M232.77,29.55c1.63,0.24,3.01,0.62,4.16,1.13c1.15,0.51,2.08,1.14,2.8,1.89c0.72,0.75,1.25,1.59,1.57,2.54
		s0.49,1.96,0.49,3.05c0,1.27-0.23,2.5-0.68,3.7c-0.46,1.2-1.23,2.26-2.32,3.18c-1.09,0.93-2.53,1.67-4.32,2.23
		c-1.79,0.56-4.03,0.84-6.71,0.84h-15.25v-1.95h4.88V14.62h-4.88v-1.95h14.64c2.47,0,4.56,0.21,6.27,0.63
		c1.71,0.42,3.09,1.01,4.15,1.76c1.06,0.75,1.82,1.63,2.28,2.63c0.46,1.01,0.7,2.1,0.7,3.27c0,0.94-0.15,1.85-0.44,2.72
		c-0.29,0.87-0.75,1.68-1.38,2.43s-1.43,1.41-2.42,1.98c-0.98,0.57-2.17,1.02-3.55,1.37V29.55z M222.16,28.75h2.88
		c1.93,0,3.56-0.12,4.88-0.37s2.37-0.66,3.17-1.24c0.8-0.58,1.37-1.36,1.71-2.33s0.51-2.18,0.51-3.62c0-1.11-0.11-2.07-0.34-2.89
		c-0.23-0.82-0.65-1.5-1.27-2.05c-0.62-0.54-1.48-0.95-2.57-1.22c-1.1-0.27-2.52-0.4-4.28-0.4h-4.68V28.75z M222.16,46.17h5.22
		c1.71,0,3.14-0.13,4.31-0.4c1.16-0.27,2.1-0.71,2.81-1.33c0.71-0.62,1.21-1.43,1.52-2.43c0.31-1,0.46-2.24,0.46-3.72
		c0-1.33-0.14-2.48-0.43-3.43c-0.28-0.95-0.81-1.74-1.58-2.35c-0.77-0.62-1.84-1.07-3.2-1.37c-1.36-0.29-3.12-0.44-5.28-0.44h-3.83
		V46.17z"/>
	<path d="M259.75,12.67c2.59,0,4.77,0.2,6.54,0.58c1.77,0.39,3.2,0.94,4.29,1.66c1.09,0.72,1.87,1.58,2.34,2.6
		c0.47,1.02,0.71,2.14,0.71,3.38c0,1.07-0.17,2.09-0.5,3.05s-0.83,1.83-1.5,2.61c-0.67,0.78-1.5,1.45-2.5,2.01
		c-1,0.56-2.17,0.99-3.52,1.28v0.1c1.12,0.26,2.04,0.64,2.77,1.15s1.31,1.12,1.76,1.85c0.45,0.73,0.8,1.57,1.05,2.5
		c0.25,0.94,0.48,1.96,0.67,3.09c0.19,1.15,0.37,2.21,0.52,3.16c0.15,0.95,0.36,1.77,0.62,2.46c0.26,0.69,0.61,1.23,1.06,1.61
		c0.45,0.38,1.07,0.57,1.87,0.57c0.15,0,0.35-0.01,0.62-0.02c0.27-0.02,0.57-0.05,0.89-0.1v1.88c-0.28,0.06-0.58,0.12-0.9,0.17
		c-0.33,0.05-0.66,0.08-0.99,0.11s-0.66,0.04-0.98,0.05s-0.6,0.01-0.84,0.01c-1.42,0-2.52-0.15-3.33-0.45
		c-0.8-0.3-1.42-0.77-1.85-1.4c-0.43-0.63-0.74-1.43-0.92-2.39c-0.18-0.96-0.35-2.1-0.51-3.42c-0.24-1.92-0.49-3.53-0.73-4.83
		s-0.58-2.35-1.02-3.13s-1.03-1.35-1.78-1.68c-0.75-0.33-1.76-0.5-3.05-0.5h-4.59v15.54h5.12v1.95h-14.76v-1.95h4.88V14.62h-4.88
		v-1.95H259.75z M255.95,28.68h3.24c1.76,0,3.22-0.15,4.4-0.44c1.18-0.29,2.13-0.75,2.85-1.38c0.72-0.63,1.24-1.42,1.54-2.39
		s0.45-2.13,0.45-3.5c0-1.14-0.12-2.11-0.37-2.92s-0.7-1.46-1.35-1.96c-0.66-0.5-1.57-0.87-2.73-1.11
		c-1.16-0.24-2.67-0.35-4.53-0.35h-3.51V28.68z"/>
	<path d="M288.91,36.65c0,1.4,0.06,2.72,0.18,3.95c0.12,1.24,0.46,2.32,1,3.24c0.54,0.93,1.37,1.66,2.49,2.21
		c1.11,0.54,2.66,0.82,4.65,0.82c2.02,0,3.64-0.28,4.88-0.84c1.24-0.56,2.19-1.33,2.87-2.32c0.67-0.98,1.13-2.15,1.35-3.49
		s0.34-2.79,0.34-4.35V14.62h-4.88v-1.95h11.93v1.95h-4.85V35.6c0,2.18-0.18,4.1-0.54,5.76c-0.36,1.66-1,3.05-1.93,4.17
		s-2.18,1.97-3.76,2.55c-1.58,0.58-3.59,0.87-6.03,0.87c-2.18,0-4.06-0.24-5.64-0.71c-1.58-0.47-2.87-1.2-3.88-2.2
		c-1.01-0.99-1.75-2.26-2.23-3.79c-0.48-1.54-0.72-3.36-0.72-5.48V14.62h-4.88v-1.95h14.51v1.95h-4.88V36.65z"/>
	<path d="M336.45,14.62h-4.88v24.64c0,1.22-0.22,2.41-0.67,3.57s-1.09,2.2-1.92,3.1c-0.83,0.9-1.84,1.63-3.04,2.18
		s-2.53,0.83-4.01,0.83c-1.11,0-2.13-0.16-3.07-0.48s-1.76-0.74-2.45-1.26c-0.69-0.52-1.23-1.13-1.62-1.82
		c-0.39-0.69-0.59-1.41-0.59-2.16c0-0.49,0.08-0.92,0.24-1.29c0.16-0.37,0.38-0.69,0.65-0.94c0.27-0.25,0.58-0.45,0.93-0.58
		c0.35-0.14,0.72-0.21,1.11-0.21c0.42,0,0.8,0.08,1.13,0.23s0.62,0.36,0.85,0.61c0.24,0.25,0.42,0.55,0.54,0.89s0.18,0.7,0.18,1.07
		c0,0.54-0.13,1.07-0.39,1.6c-0.26,0.53-0.63,0.98-1.12,1.35c1.06,0.68,2.28,1.02,3.66,1.02c0.68,0,1.32-0.1,1.92-0.3
		c0.59-0.2,1.11-0.54,1.55-1.03c0.44-0.48,0.78-1.1,1.02-1.87c0.24-0.76,0.37-1.71,0.37-2.83V14.62h-5.12v-1.95h14.73V14.62z"/>
	<path d="M347.84,46.17v1.95h-11.88v-1.95h4.63l12.69-33.86h1.93l11.9,33.86h4.83v1.95h-15v-1.95h5.07l-3.66-10.42h-11.51
		l-3.88,10.42H347.84z M352.75,20.02l-5.15,13.76h10.08l-4.83-13.76H352.75z"/>
</g>
<g>
	<path d="M189.63,14.99l14.5,31.42c0.48,1.04-0.28,2.22-1.42,2.22H163.7c-1.14,0-1.9-1.18-1.42-2.22l13.17-28.53
		c0.2-0.43,0.58-0.74,1.03-0.86l11.34-2.89C188.56,13.95,189.32,14.31,189.63,14.99z"/>
	<g>
		<path d="M171.62,32.01c-0.16,0.21-0.29,0.45-0.49,0.62c-0.62,0.56-1.26,1.09-1.89,1.64c0.33,0.39,0.46,0.57,0.61,0.73
			c1.77,1.87,3.77,3.46,6.04,4.69c3.73,2.03,7.63,2.69,11.72,1.24c3.55-1.26,6.51-3.42,9.06-6.17c0.09-0.09,0.15-0.21,0.23-0.34
			c-0.16-0.2-0.3-0.38-0.45-0.54c-2.14-2.23-4.55-4.08-7.38-5.35c-3.08-1.39-6.26-1.76-9.54-0.83c-2.57,0.73-4.83,2.04-6.92,3.67
			c-0.31,0.25-0.68,0.43-1.01,0.65"/>
		<path class="st0" d="M171.36,31.91c0.35-0.22,0.62-0.37,0.94-0.62c2.15-1.68,4.48-3.03,7.12-3.78c3.37-0.95,6.64-0.58,9.81,0.85
			c2.91,1.31,5.4,3.21,7.59,5.51c0.16,0.17,0.29,0.35,0.46,0.56c-0.09,0.13-0.15,0.25-0.24,0.35c-2.62,2.83-5.66,5.06-9.32,6.35
			c-4.21,1.49-8.21,0.81-12.05-1.28c-2.33-1.27-4.39-2.9-6.21-4.83c-0.16-0.17-0.3-0.35-0.63-0.76c0.65-0.56,1.31-1.11,1.95-1.69
			c0.2-0.18,0.25-0.3,0.42-0.51C171.21,32.06,171.36,31.91,171.36,31.91z M196.15,34.57c-2.24-2.26-4.52-3.99-7.17-5.22
			c-3.1-1.44-6.28-1.83-9.58-0.79c-3.48,1.1-6.35,3.16-8.91,5.7c-0.06,0.06-0.08,0.16-0.17,0.35c1.14,0.95,2.24,1.95,3.44,2.83
			c2.45,1.8,5.13,3.15,8.21,3.44c3.52,0.33,6.67-0.75,9.53-2.71C193.07,37.07,194.54,35.82,196.15,34.57z"/>
		<g>
			<path class="st0" d="M175.1,28.55c-0.15,0.22-0.22,0.4-0.34,0.45c-0.15,0.06-0.43,0.07-0.5-0.02c-0.41-0.53-0.8-1.08-1.15-1.65
				c-0.05-0.09,0.07-0.36,0.19-0.46c0.09-0.09,0.38-0.13,0.44-0.06C174.21,27.38,174.65,27.96,175.1,28.55z"/>
			<path class="st0" d="M171.15,31.04c-0.12,0.24-0.15,0.43-0.27,0.5c-0.14,0.08-0.41,0.13-0.5,0.05c-0.49-0.46-0.95-0.95-1.38-1.46
				c-0.07-0.08,0.02-0.36,0.12-0.49c0.08-0.1,0.36-0.18,0.42-0.12C170.1,30,170.61,30.52,171.15,31.04z"/>
			<g>
				<path class="st0" d="M192.85,26.81c-0.47,0.68-0.89,1.33-1.36,1.96c-0.06,0.08-0.42,0.07-0.49-0.02
					c-0.12-0.15-0.23-0.46-0.15-0.6c0.32-0.59,0.69-1.15,1.09-1.68c0.09-0.11,0.38-0.15,0.55-0.1
					C192.63,26.4,192.71,26.62,192.85,26.81z"/>
				<path class="st0" d="M196.89,39.19c-0.26,0.06-0.59,0.25-0.72,0.16c-0.58-0.41-1.12-0.9-1.64-1.39
					c-0.07-0.07-0.03-0.38,0.07-0.49c0.09-0.11,0.39-0.21,0.47-0.15c0.58,0.45,1.14,0.94,1.69,1.43
					C196.83,38.8,196.82,38.92,196.89,39.19z"/>
				<path class="st0" d="M187.83,44.52c-0.28-0.32-0.48-0.46-0.56-0.65c-0.22-0.51-0.43-1.03-0.56-1.56
					c-0.05-0.2,0.16-0.45,0.25-0.68c0.2,0.1,0.52,0.15,0.6,0.31c0.27,0.56,0.49,1.15,0.64,1.75C188.24,43.89,188,44.16,187.83,44.52
					z"/>
				<path class="st0" d="M188.17,25.04c-0.26,0.71-0.44,1.31-0.7,1.87c-0.07,0.16-0.39,0.2-0.6,0.3c-0.09-0.21-0.31-0.45-0.26-0.62
					c0.15-0.6,0.36-1.19,0.62-1.76c0.07-0.15,0.4-0.3,0.55-0.25C187.96,24.64,188.07,24.91,188.17,25.04z"/>
				<path class="st0" d="M196.86,29.74c-0.1,0.16-0.16,0.32-0.27,0.42c-0.42,0.39-0.84,0.8-1.31,1.13c-0.16,0.11-0.48,0-0.72-0.01
					c0.02-0.23-0.04-0.54,0.09-0.67c0.41-0.44,0.87-0.83,1.35-1.19c0.13-0.1,0.39-0.1,0.57-0.05
					C196.68,29.4,196.75,29.6,196.86,29.74z"/>
				<path class="st0" d="M183.54,43.61c0,0.28,0.06,0.58-0.02,0.83c-0.06,0.19-0.28,0.42-0.46,0.46c-0.12,0.03-0.43-0.24-0.45-0.4
					c-0.06-0.62-0.06-1.26-0.02-1.88c0.01-0.15,0.3-0.4,0.45-0.4c0.16,0,0.41,0.24,0.45,0.41c0.07,0.31,0.02,0.65,0.02,0.97
					C183.53,43.61,183.53,43.61,183.54,43.61z"/>
				<path class="st0" d="M193.11,42.23c-0.21,0.08-0.39,0.19-0.57,0.21c-0.16,0.02-0.42,0-0.49-0.11c-0.41-0.56-0.8-1.14-1.16-1.74
					c-0.06-0.1-0.03-0.37,0.06-0.43c0.12-0.09,0.43-0.16,0.49-0.09C191.95,40.69,192.43,41.34,193.11,42.23z"/>
				<path class="st0" d="M183.41,25.32c0,0.3,0.05,0.61-0.02,0.9c-0.04,0.18-0.29,0.47-0.39,0.45c-0.2-0.05-0.5-0.26-0.51-0.42
					c-0.06-0.62-0.04-1.25,0.01-1.87c0.01-0.15,0.31-0.38,0.47-0.38c0.15,0,0.38,0.24,0.43,0.42
					C183.47,24.71,183.42,25.02,183.41,25.32C183.42,25.32,183.42,25.32,183.41,25.32z"/>
				<path class="st0" d="M178.11,24.53c0.28,0.23,0.48,0.32,0.54,0.46c0.24,0.56,0.46,1.12,0.61,1.7c0.04,0.16-0.14,0.52-0.26,0.54
					c-0.19,0.03-0.53-0.09-0.61-0.24c-0.25-0.52-0.46-1.07-0.59-1.63C177.76,25.15,177.97,24.88,178.11,24.53z"/>
				<path class="st0" d="M173.44,42.33c-0.07-0.28-0.27-0.6-0.18-0.78c0.26-0.51,0.61-0.99,0.97-1.44c0.1-0.12,0.4-0.19,0.54-0.12
					c0.14,0.07,0.32,0.39,0.27,0.48c-0.35,0.59-0.76,1.16-1.16,1.72C173.84,42.25,173.71,42.25,173.44,42.33z"/>
				<path class="st0" d="M179.42,42.15c-0.23,0.67-0.39,1.23-0.64,1.75c-0.08,0.16-0.39,0.22-0.6,0.32
					c-0.1-0.21-0.31-0.44-0.27-0.62c0.13-0.56,0.33-1.11,0.56-1.64c0.07-0.15,0.4-0.32,0.54-0.28
					C179.19,41.75,179.31,42.02,179.42,42.15z"/>
				<path class="st0" d="M169.72,39.12c-0.22-0.18-0.42-0.27-0.47-0.41c-0.05-0.14-0.03-0.41,0.07-0.49
					c0.48-0.39,0.98-0.76,1.51-1.09c0.12-0.08,0.4,0.01,0.55,0.11c0.09,0.06,0.15,0.37,0.09,0.42
					C170.91,38.15,170.33,38.62,169.72,39.12z"/>
			</g>
		</g>
		<path class="st0" d="M188.57,34.47c-0.01,2.99-2.45,5.41-5.45,5.4c-2.98-0.01-5.4-2.47-5.37-5.47c0.02-2.96,2.47-5.38,5.41-5.37
			C186.15,29.04,188.57,31.48,188.57,34.47z"/>
	</g>
	<polygon points="188.17,12.56 176.28,15.92 180.07,5.73 180.9,7.8 183.59,0 	"/>
	<polygon class="st0" points="185.47,11 179.87,12.72 181.01,9.82 181.59,10.99 183.62,5.4 	"/>
</g>
<polygon points="1.72,59.57 48,59.08 94.27,58.81 186.83,58.57 279.39,58.8 325.67,59.08 371.95,59.57 325.67,60.06 279.39,60.34 
	186.83,60.57 94.27,60.34 48,60.06 "/>
<g>
	<path d="M2.6,77.38h0.56c0.06,0.6,0.18,1.11,0.35,1.51c0.17,0.4,0.39,0.72,0.65,0.96c0.26,0.24,0.55,0.41,0.88,0.5
		c0.33,0.1,0.68,0.15,1.05,0.15c0.45,0,0.83-0.06,1.14-0.17s0.58-0.27,0.78-0.46c0.2-0.2,0.35-0.44,0.45-0.72s0.14-0.58,0.14-0.92
		c0-0.41-0.07-0.75-0.21-1.02c-0.14-0.27-0.33-0.5-0.58-0.68s-0.54-0.35-0.89-0.49c-0.34-0.14-0.72-0.28-1.14-0.43
		c-0.41-0.15-0.81-0.3-1.18-0.47c-0.37-0.16-0.7-0.37-0.99-0.61c-0.29-0.24-0.51-0.54-0.68-0.89s-0.25-0.79-0.25-1.32
		c0-0.49,0.08-0.94,0.24-1.35c0.16-0.41,0.4-0.76,0.71-1.05c0.31-0.29,0.7-0.51,1.16-0.67s1-0.24,1.62-0.24
		c0.24,0,0.5,0.01,0.76,0.04c0.26,0.02,0.52,0.06,0.78,0.11c0.26,0.05,0.51,0.1,0.76,0.17c0.25,0.07,0.48,0.14,0.71,0.22l0.1,2.89
		H8.95c-0.05-0.57-0.15-1.04-0.32-1.4c-0.16-0.36-0.36-0.64-0.6-0.85s-0.5-0.34-0.79-0.42c-0.29-0.08-0.58-0.12-0.89-0.12
		c-0.4,0-0.75,0.05-1.05,0.15c-0.3,0.1-0.54,0.24-0.74,0.42s-0.34,0.41-0.44,0.67s-0.15,0.56-0.15,0.89c0,0.39,0.07,0.72,0.21,0.98
		c0.14,0.26,0.33,0.48,0.58,0.67c0.25,0.19,0.55,0.36,0.91,0.5c0.35,0.15,0.74,0.3,1.16,0.46c0.39,0.15,0.77,0.31,1.14,0.47
		s0.71,0.38,1,0.63c0.29,0.25,0.53,0.56,0.71,0.93s0.27,0.83,0.27,1.37c0,0.53-0.09,1-0.27,1.42c-0.18,0.41-0.45,0.76-0.79,1.04
		c-0.34,0.28-0.76,0.5-1.25,0.64c-0.49,0.15-1.05,0.22-1.67,0.22c-0.27,0-0.55-0.01-0.84-0.04C4.86,81.04,4.57,81,4.29,80.95
		s-0.56-0.11-0.83-0.18c-0.27-0.07-0.52-0.15-0.76-0.24L2.6,77.38z"/>
	<path d="M14.4,80.2v0.64h-3.87V80.2h1.51l4.13-11.04h0.63l3.88,11.04h1.57v0.64h-4.89V80.2h1.65l-1.19-3.4h-3.75l-1.26,3.4H14.4z
		 M16,71.67l-1.68,4.48h3.28l-1.57-4.48H16z"/>
	<path d="M32.39,80.95h-0.64l-6.88-10.66l-0.04,0.01v9.9h1.43v0.64h-3.74V80.2h1.59V69.92h-1.59v-0.64h3.55l5.55,8.6l0.04-0.01
		v-7.96h-1.59v-0.64h3.9v0.64h-1.59V80.95z"/>
	<path d="M35.13,69.28h9.32l0.19,3.43h-0.56c-0.07-0.59-0.17-1.07-0.29-1.44s-0.28-0.65-0.5-0.85c-0.21-0.2-0.49-0.33-0.83-0.4
		c-0.34-0.07-0.77-0.1-1.28-0.1h-0.64V80.2h1.75v0.64h-5.05V80.2h1.75V69.92h-0.6c-0.34,0-0.65,0.01-0.91,0.04
		c-0.27,0.03-0.5,0.08-0.7,0.15s-0.37,0.18-0.51,0.31s-0.27,0.3-0.37,0.51c-0.1,0.21-0.19,0.46-0.26,0.75
		c-0.07,0.29-0.13,0.64-0.19,1.03H34.9L35.13,69.28z"/>
	<path d="M48.85,74.52h1.04c0.35,0,0.65-0.01,0.89-0.04c0.24-0.03,0.43-0.1,0.58-0.23c0.15-0.12,0.26-0.32,0.33-0.58
		s0.13-0.63,0.16-1.11h0.56v4.71h-0.56c-0.03-0.48-0.07-0.86-0.14-1.14s-0.17-0.49-0.31-0.63c-0.14-0.14-0.34-0.23-0.58-0.27
		s-0.55-0.06-0.93-0.06h-1.04v5.03h2.11c0.41,0,0.78-0.02,1.09-0.05c0.31-0.03,0.59-0.09,0.82-0.17s0.43-0.2,0.6-0.36
		c0.17-0.15,0.31-0.35,0.43-0.6c0.12-0.24,0.23-0.54,0.31-0.89c0.08-0.35,0.16-0.76,0.24-1.24h0.56l-0.16,3.94h-9.14V80.2h1.59
		V69.92h-1.59v-0.64h8.94l0.16,3.19h-0.56c-0.08-0.53-0.18-0.96-0.29-1.29c-0.12-0.33-0.28-0.59-0.49-0.78
		c-0.21-0.19-0.48-0.31-0.82-0.38c-0.34-0.07-0.76-0.1-1.28-0.1h-2.52V74.52z"/>
	<path d="M60.98,69.28c0.84,0,1.55,0.06,2.13,0.19s1.04,0.31,1.4,0.54c0.35,0.23,0.61,0.52,0.76,0.85c0.15,0.33,0.23,0.7,0.23,1.1
		c0,0.35-0.05,0.68-0.16,0.99c-0.11,0.31-0.27,0.6-0.49,0.85c-0.22,0.25-0.49,0.47-0.82,0.66c-0.33,0.18-0.71,0.32-1.15,0.42v0.03
		c0.37,0.08,0.67,0.21,0.9,0.37c0.24,0.16,0.43,0.37,0.57,0.6c0.15,0.24,0.26,0.51,0.34,0.81s0.16,0.64,0.22,1.01
		c0.06,0.38,0.12,0.72,0.17,1.03c0.05,0.31,0.12,0.58,0.2,0.8c0.08,0.23,0.2,0.4,0.35,0.52c0.15,0.13,0.35,0.19,0.61,0.19
		c0.05,0,0.12,0,0.2-0.01c0.09,0,0.18-0.02,0.29-0.03v0.61c-0.09,0.02-0.19,0.04-0.29,0.06c-0.11,0.02-0.21,0.03-0.32,0.04
		c-0.11,0.01-0.21,0.01-0.32,0.02c-0.1,0-0.19,0-0.27,0c-0.46,0-0.82-0.05-1.09-0.15c-0.26-0.1-0.46-0.25-0.6-0.46
		c-0.14-0.21-0.24-0.47-0.3-0.78c-0.06-0.31-0.11-0.68-0.17-1.11c-0.08-0.63-0.16-1.15-0.24-1.57c-0.08-0.42-0.19-0.76-0.33-1.02
		c-0.14-0.26-0.34-0.44-0.58-0.55c-0.24-0.11-0.58-0.16-0.99-0.16h-1.49v5.07h1.67v0.64H56.6V80.2h1.59V69.92H56.6v-0.64H60.98z
		 M59.74,74.5h1.06c0.57,0,1.05-0.05,1.44-0.14s0.69-0.25,0.93-0.45s0.4-0.46,0.5-0.78s0.15-0.7,0.15-1.14
		c0-0.37-0.04-0.69-0.12-0.95s-0.23-0.48-0.44-0.64c-0.21-0.16-0.51-0.28-0.89-0.36s-0.87-0.12-1.47-0.12h-1.15V74.5z"/>
	<path d="M70.68,69.92V80.2h1.59v0.64h-4.73V80.2h1.59V69.92h-1.59v-0.64h4.73v0.64H70.68z"/>
	<path d="M76.34,80.2v0.64h-3.87V80.2h1.51l4.13-11.04h0.63l3.88,11.04h1.57v0.64h-4.89V80.2h1.65l-1.19-3.4h-3.75l-1.26,3.4H76.34z
		 M77.94,71.67l-1.68,4.48h3.28l-1.57-4.48H77.94z"/>
	<path d="M89.52,76.41h3.54v1.2h-3.54V76.41z"/>
	<path d="M100.65,80.2V69.92h-1.59v-0.64h4.73v0.64h-1.59v4.6h5.32v-4.6h-1.59v-0.64h4.73v0.64h-1.59V80.2h1.59v0.64h-4.73V80.2
		h1.59v-5.03h-5.32v5.03h1.59v0.64h-4.73V80.2H100.65z"/>
	<path d="M112.26,75.17c0-0.95,0.13-1.8,0.39-2.56s0.62-1.4,1.08-1.94c0.46-0.53,1.01-0.94,1.65-1.23c0.64-0.29,1.34-0.43,2.1-0.43
		c0.75,0,1.44,0.14,2.06,0.42s1.15,0.67,1.59,1.19c0.44,0.51,0.78,1.14,1.02,1.87c0.24,0.73,0.36,1.55,0.36,2.46
		c0,0.89-0.12,1.71-0.35,2.47c-0.24,0.75-0.58,1.41-1.02,1.95s-0.99,0.97-1.63,1.28c-0.64,0.31-1.37,0.46-2.18,0.46
		c-0.76,0-1.46-0.14-2.08-0.41c-0.62-0.28-1.15-0.67-1.59-1.18c-0.44-0.51-0.78-1.14-1.02-1.87S112.26,76.08,112.26,75.17z
		 M113.98,75.12c0,0.73,0.04,1.37,0.12,1.92s0.19,1.02,0.33,1.42c0.14,0.4,0.31,0.72,0.51,0.98s0.43,0.47,0.68,0.62
		c0.25,0.15,0.52,0.26,0.81,0.32c0.29,0.06,0.6,0.09,0.92,0.09s0.63-0.03,0.93-0.09c0.29-0.06,0.57-0.17,0.82-0.33
		s0.48-0.37,0.69-0.63c0.21-0.27,0.38-0.6,0.53-1.01c0.15-0.41,0.26-0.89,0.34-1.45c0.08-0.56,0.12-1.21,0.12-1.96
		c0-0.73-0.04-1.37-0.12-1.92c-0.08-0.55-0.19-1.02-0.33-1.42s-0.31-0.73-0.51-0.99c-0.2-0.26-0.43-0.47-0.67-0.62
		c-0.25-0.15-0.52-0.26-0.81-0.32c-0.29-0.06-0.6-0.09-0.92-0.09s-0.63,0.03-0.93,0.1c-0.3,0.06-0.57,0.17-0.83,0.33
		c-0.25,0.15-0.48,0.36-0.69,0.63c-0.21,0.27-0.38,0.6-0.53,1.01c-0.15,0.4-0.26,0.88-0.34,1.45
		C114.02,73.72,113.98,74.37,113.98,75.12z"/>
	<path d="M129.1,80.2c0.41,0,0.78-0.02,1.09-0.05c0.31-0.03,0.59-0.09,0.82-0.18c0.24-0.09,0.44-0.21,0.61-0.37
		c0.17-0.16,0.31-0.36,0.44-0.61s0.23-0.55,0.31-0.91c0.09-0.36,0.17-0.78,0.23-1.28h0.56l-0.17,4.02h-8.9V80.2h1.59V69.92h-1.59
		v-0.64h4.73v0.64h-1.59V80.2H129.1z"/>
	<path d="M137.37,69.92V80.2h1.59v0.64h-4.73V80.2h1.59V69.92h-1.59v-0.64h4.73v0.64H137.37z"/>
	<path d="M140.36,77.38h0.56c0.06,0.6,0.18,1.11,0.35,1.51c0.17,0.4,0.39,0.72,0.65,0.96c0.26,0.24,0.55,0.41,0.88,0.5
		c0.33,0.1,0.68,0.15,1.05,0.15c0.45,0,0.83-0.06,1.14-0.17s0.58-0.27,0.78-0.46c0.2-0.2,0.35-0.44,0.45-0.72s0.14-0.58,0.14-0.92
		c0-0.41-0.07-0.75-0.21-1.02c-0.14-0.27-0.33-0.5-0.58-0.68s-0.54-0.35-0.89-0.49c-0.34-0.14-0.72-0.28-1.14-0.43
		c-0.41-0.15-0.81-0.3-1.18-0.47c-0.37-0.16-0.7-0.37-0.99-0.61c-0.29-0.24-0.51-0.54-0.68-0.89s-0.25-0.79-0.25-1.32
		c0-0.49,0.08-0.94,0.24-1.35c0.16-0.41,0.4-0.76,0.71-1.05c0.31-0.29,0.7-0.51,1.16-0.67s1-0.24,1.62-0.24
		c0.24,0,0.5,0.01,0.76,0.04c0.26,0.02,0.52,0.06,0.78,0.11c0.26,0.05,0.51,0.1,0.76,0.17c0.25,0.07,0.48,0.14,0.71,0.22l0.1,2.89
		h-0.56c-0.05-0.57-0.15-1.04-0.32-1.4c-0.16-0.36-0.36-0.64-0.6-0.85s-0.5-0.34-0.79-0.42c-0.29-0.08-0.58-0.12-0.89-0.12
		c-0.4,0-0.75,0.05-1.05,0.15c-0.3,0.1-0.54,0.24-0.74,0.42s-0.34,0.41-0.44,0.67s-0.15,0.56-0.15,0.89c0,0.39,0.07,0.72,0.21,0.98
		c0.14,0.26,0.33,0.48,0.58,0.67c0.25,0.19,0.55,0.36,0.91,0.5c0.35,0.15,0.74,0.3,1.16,0.46c0.39,0.15,0.77,0.31,1.14,0.47
		s0.71,0.38,1,0.63c0.29,0.25,0.53,0.56,0.71,0.93s0.27,0.83,0.27,1.37c0,0.53-0.09,1-0.27,1.42c-0.18,0.41-0.45,0.76-0.79,1.04
		c-0.34,0.28-0.76,0.5-1.25,0.64c-0.49,0.15-1.05,0.22-1.67,0.22c-0.27,0-0.55-0.01-0.84-0.04c-0.29-0.03-0.58-0.07-0.86-0.12
		s-0.56-0.11-0.83-0.18c-0.27-0.07-0.52-0.15-0.76-0.24L140.36,77.38z"/>
	<path d="M149.16,69.28h9.32l0.19,3.43h-0.56c-0.07-0.59-0.17-1.07-0.29-1.44s-0.28-0.65-0.5-0.85c-0.21-0.2-0.49-0.33-0.83-0.4
		c-0.34-0.07-0.77-0.1-1.28-0.1h-0.64V80.2h1.75v0.64h-5.05V80.2h1.75V69.92h-0.6c-0.34,0-0.65,0.01-0.91,0.04
		c-0.27,0.03-0.5,0.08-0.7,0.15s-0.37,0.18-0.51,0.31s-0.27,0.3-0.37,0.51c-0.1,0.21-0.19,0.46-0.26,0.75
		c-0.07,0.29-0.13,0.64-0.19,1.03h-0.56L149.16,69.28z"/>
	<path d="M162.88,69.92V80.2h1.59v0.64h-4.73V80.2h1.59V69.92h-1.59v-0.64h4.73v0.64H162.88z"/>
	<path d="M174.86,77.38l-0.11,3.15c-0.25,0.09-0.53,0.17-0.82,0.24c-0.29,0.07-0.59,0.13-0.89,0.18c-0.3,0.05-0.6,0.09-0.89,0.12
		c-0.29,0.03-0.57,0.04-0.82,0.04c-0.81,0-1.54-0.14-2.19-0.41c-0.65-0.28-1.2-0.67-1.65-1.18c-0.45-0.51-0.8-1.13-1.04-1.86
		s-0.36-1.56-0.36-2.47c0-0.94,0.13-1.79,0.38-2.54c0.25-0.76,0.62-1.41,1.09-1.94s1.04-0.95,1.71-1.24
		c0.67-0.29,1.42-0.43,2.25-0.43c0.23,0,0.48,0.01,0.74,0.04c0.26,0.02,0.52,0.06,0.79,0.1s0.53,0.1,0.8,0.16
		c0.26,0.06,0.52,0.13,0.76,0.21l0.1,2.9h-0.56c-0.05-0.58-0.15-1.05-0.31-1.41c-0.16-0.36-0.36-0.65-0.61-0.85
		c-0.24-0.2-0.52-0.34-0.83-0.41c-0.31-0.07-0.63-0.11-0.98-0.11c-0.35,0-0.68,0.03-0.99,0.1c-0.31,0.06-0.6,0.17-0.87,0.33
		s-0.51,0.37-0.72,0.64c-0.21,0.27-0.4,0.6-0.54,1.01s-0.26,0.89-0.35,1.45c-0.08,0.56-0.12,1.21-0.12,1.95
		c0,0.74,0.04,1.38,0.12,1.93c0.08,0.55,0.19,1.02,0.34,1.42c0.15,0.4,0.32,0.72,0.53,0.98c0.21,0.26,0.44,0.46,0.7,0.61
		c0.26,0.15,0.54,0.26,0.84,0.31c0.3,0.06,0.62,0.09,0.95,0.09c0.4,0,0.77-0.05,1.12-0.14c0.34-0.09,0.64-0.26,0.91-0.49
		s0.48-0.55,0.65-0.95s0.29-0.9,0.35-1.52H174.86z"/>
	<path d="M179.52,80.2v0.64h-3.87V80.2h1.51l4.13-11.04h0.63l3.88,11.04h1.57v0.64h-4.89V80.2h1.65l-1.19-3.4h-3.75l-1.26,3.4
		H179.52z M181.12,71.67l-1.68,4.48h3.28l-1.57-4.48H181.12z"/>
	<path d="M192.71,76.41h3.54v1.2h-3.54V76.41z"/>
	<path d="M197.35,69.28h9.32l0.19,3.43h-0.56c-0.07-0.59-0.17-1.07-0.29-1.44c-0.12-0.37-0.28-0.65-0.5-0.85
		c-0.21-0.2-0.49-0.33-0.83-0.4c-0.34-0.07-0.77-0.1-1.28-0.1h-0.64V80.2h1.75v0.64h-5.05V80.2h1.75V69.92h-0.6
		c-0.34,0-0.65,0.01-0.91,0.04c-0.27,0.03-0.5,0.08-0.7,0.15s-0.37,0.18-0.51,0.31s-0.27,0.3-0.37,0.51
		c-0.1,0.21-0.19,0.46-0.26,0.75c-0.07,0.29-0.13,0.64-0.19,1.03h-0.56L197.35,69.28z"/>
	<path d="M210.18,80.2v0.64h-3.87V80.2h1.51l4.13-11.04h0.63l3.88,11.04h1.57v0.64h-4.89V80.2h1.65l-1.19-3.4h-3.75l-1.26,3.4
		H210.18z M211.77,71.67l-1.68,4.48h3.28l-1.57-4.48H211.77z"/>
	<path d="M222.77,69.28c0.84,0,1.55,0.06,2.13,0.19c0.58,0.13,1.04,0.31,1.4,0.54c0.35,0.23,0.61,0.52,0.76,0.85
		c0.15,0.33,0.23,0.7,0.23,1.1c0,0.35-0.05,0.68-0.16,0.99c-0.11,0.31-0.27,0.6-0.49,0.85c-0.22,0.25-0.49,0.47-0.82,0.66
		c-0.33,0.18-0.71,0.32-1.15,0.42v0.03c0.37,0.08,0.67,0.21,0.9,0.37s0.43,0.37,0.57,0.6c0.15,0.24,0.26,0.51,0.34,0.81
		s0.16,0.64,0.22,1.01c0.06,0.38,0.12,0.72,0.17,1.03c0.05,0.31,0.12,0.58,0.2,0.8s0.2,0.4,0.35,0.52c0.15,0.13,0.35,0.19,0.61,0.19
		c0.05,0,0.12,0,0.2-0.01c0.09,0,0.18-0.02,0.29-0.03v0.61c-0.09,0.02-0.19,0.04-0.29,0.06c-0.11,0.02-0.21,0.03-0.32,0.04
		c-0.11,0.01-0.21,0.01-0.32,0.02c-0.1,0-0.19,0-0.27,0c-0.46,0-0.82-0.05-1.08-0.15c-0.26-0.1-0.46-0.25-0.6-0.46
		s-0.24-0.47-0.3-0.78c-0.06-0.31-0.11-0.68-0.17-1.11c-0.08-0.63-0.16-1.15-0.24-1.57c-0.08-0.42-0.19-0.76-0.33-1.02
		c-0.14-0.26-0.34-0.44-0.58-0.55s-0.58-0.16-0.99-0.16h-1.49v5.07h1.67v0.64h-4.81V80.2h1.59V69.92h-1.59v-0.64H222.77z
		 M221.53,74.5h1.06c0.57,0,1.05-0.05,1.43-0.14c0.38-0.1,0.69-0.25,0.93-0.45c0.24-0.2,0.4-0.46,0.5-0.78
		c0.1-0.32,0.15-0.7,0.15-1.14c0-0.37-0.04-0.69-0.12-0.95c-0.08-0.26-0.23-0.48-0.44-0.64c-0.21-0.16-0.51-0.28-0.89-0.36
		s-0.87-0.12-1.47-0.12h-1.14V74.5z"/>
	<path d="M229.73,75.17c0-0.95,0.13-1.8,0.39-2.56c0.26-0.76,0.62-1.4,1.08-1.94c0.46-0.53,1.01-0.94,1.65-1.23s1.34-0.43,2.1-0.43
		c0.75,0,1.44,0.14,2.05,0.42s1.15,0.67,1.59,1.19c0.44,0.51,0.78,1.14,1.02,1.87s0.36,1.55,0.36,2.46c0,0.89-0.12,1.71-0.35,2.47
		c-0.24,0.75-0.58,1.41-1.02,1.95s-0.99,0.97-1.63,1.28c-0.64,0.31-1.37,0.46-2.18,0.46c-0.76,0-1.46-0.14-2.08-0.41
		c-0.62-0.28-1.15-0.67-1.59-1.18c-0.44-0.51-0.78-1.14-1.02-1.87S229.73,76.08,229.73,75.17z M231.45,75.12
		c0,0.73,0.04,1.37,0.12,1.92c0.08,0.55,0.19,1.02,0.33,1.42c0.14,0.4,0.31,0.72,0.51,0.98c0.2,0.26,0.43,0.47,0.68,0.62
		c0.25,0.15,0.52,0.26,0.81,0.32c0.29,0.06,0.6,0.09,0.92,0.09s0.63-0.03,0.93-0.09c0.29-0.06,0.57-0.17,0.82-0.33
		c0.25-0.16,0.49-0.37,0.69-0.63c0.21-0.27,0.38-0.6,0.53-1.01c0.15-0.41,0.26-0.89,0.34-1.45c0.08-0.56,0.12-1.21,0.12-1.96
		c0-0.73-0.04-1.37-0.12-1.92c-0.08-0.55-0.19-1.02-0.33-1.42c-0.14-0.4-0.31-0.73-0.51-0.99c-0.2-0.26-0.42-0.47-0.67-0.62
		c-0.25-0.15-0.52-0.26-0.81-0.32c-0.29-0.06-0.6-0.09-0.92-0.09s-0.63,0.03-0.93,0.1s-0.57,0.17-0.83,0.33
		c-0.25,0.15-0.48,0.36-0.69,0.63s-0.38,0.6-0.53,1.01c-0.15,0.4-0.26,0.88-0.34,1.45C231.49,73.72,231.45,74.37,231.45,75.12z"/>
	<path d="M241.67,69.28h9.32l0.19,3.43h-0.56c-0.07-0.59-0.17-1.07-0.29-1.44s-0.28-0.65-0.5-0.85c-0.21-0.2-0.49-0.33-0.83-0.4
		c-0.34-0.07-0.77-0.1-1.28-0.1h-0.64V80.2h1.75v0.64h-5.05V80.2h1.75V69.92h-0.6c-0.34,0-0.65,0.01-0.91,0.04
		c-0.26,0.03-0.5,0.08-0.7,0.15c-0.2,0.07-0.37,0.18-0.51,0.31c-0.14,0.13-0.26,0.3-0.37,0.51s-0.19,0.46-0.26,0.75
		c-0.07,0.29-0.13,0.64-0.19,1.03h-0.56L241.67,69.28z"/>
	<path d="M257.22,76.41h3.54v1.2h-3.54V76.41z"/>
	<path d="M269.8,80.2v0.64h-3.87V80.2h1.51l4.13-11.04h0.63l3.88,11.04h1.57v0.64h-4.89V80.2h1.65l-1.19-3.4h-3.75l-1.26,3.4H269.8z
		 M271.4,71.67l-1.68,4.48h3.28l-1.57-4.48H271.4z"/>
	<path d="M278.38,77.38h0.56c0.06,0.6,0.17,1.11,0.35,1.51c0.17,0.4,0.39,0.72,0.65,0.96c0.26,0.24,0.55,0.41,0.88,0.5
		c0.33,0.1,0.68,0.15,1.05,0.15c0.45,0,0.83-0.06,1.14-0.17c0.31-0.11,0.57-0.27,0.78-0.46c0.2-0.2,0.35-0.44,0.45-0.72
		s0.14-0.58,0.14-0.92c0-0.41-0.07-0.75-0.21-1.02s-0.33-0.5-0.58-0.68s-0.54-0.35-0.89-0.49c-0.34-0.14-0.72-0.28-1.14-0.43
		c-0.41-0.15-0.81-0.3-1.18-0.47c-0.37-0.16-0.7-0.37-0.99-0.61c-0.29-0.24-0.51-0.54-0.68-0.89s-0.25-0.79-0.25-1.32
		c0-0.49,0.08-0.94,0.24-1.35c0.16-0.41,0.39-0.76,0.71-1.05s0.7-0.51,1.17-0.67s1-0.24,1.62-0.24c0.24,0,0.5,0.01,0.75,0.04
		c0.26,0.02,0.52,0.06,0.78,0.11c0.26,0.05,0.51,0.1,0.76,0.17s0.49,0.14,0.71,0.22l0.09,2.89h-0.56c-0.05-0.57-0.15-1.04-0.32-1.4
		c-0.17-0.36-0.37-0.64-0.6-0.85c-0.24-0.2-0.5-0.34-0.79-0.42s-0.58-0.12-0.89-0.12c-0.4,0-0.75,0.05-1.05,0.15
		c-0.3,0.1-0.54,0.24-0.74,0.42s-0.34,0.41-0.44,0.67c-0.1,0.26-0.15,0.56-0.15,0.89c0,0.39,0.07,0.72,0.21,0.98
		c0.14,0.26,0.33,0.48,0.58,0.67c0.25,0.19,0.55,0.36,0.91,0.5c0.35,0.15,0.74,0.3,1.17,0.46c0.39,0.15,0.77,0.31,1.14,0.47
		s0.71,0.38,1,0.63c0.29,0.25,0.53,0.56,0.71,0.93c0.18,0.37,0.27,0.83,0.27,1.37c0,0.53-0.09,1-0.27,1.42
		c-0.18,0.41-0.45,0.76-0.79,1.04c-0.34,0.28-0.76,0.5-1.25,0.64s-1.05,0.22-1.67,0.22c-0.27,0-0.55-0.01-0.84-0.04
		s-0.58-0.07-0.86-0.12s-0.56-0.11-0.83-0.18c-0.27-0.07-0.52-0.15-0.75-0.24L278.38,77.38z"/>
	<path d="M287.18,69.28h9.32l0.19,3.43h-0.56c-0.07-0.59-0.17-1.07-0.29-1.44s-0.28-0.65-0.5-0.85c-0.21-0.2-0.49-0.33-0.83-0.4
		c-0.34-0.07-0.77-0.1-1.28-0.1h-0.64V80.2h1.75v0.64h-5.05V80.2h1.75V69.92h-0.6c-0.34,0-0.65,0.01-0.91,0.04
		c-0.26,0.03-0.5,0.08-0.7,0.15c-0.2,0.07-0.37,0.18-0.51,0.31c-0.14,0.13-0.26,0.3-0.37,0.51s-0.19,0.46-0.26,0.75
		c-0.07,0.29-0.13,0.64-0.19,1.03h-0.56L287.18,69.28z"/>
	<path d="M302.14,69.28c0.84,0,1.55,0.06,2.13,0.19c0.58,0.13,1.04,0.31,1.4,0.54c0.35,0.23,0.61,0.52,0.76,0.85
		c0.15,0.33,0.23,0.7,0.23,1.1c0,0.35-0.05,0.68-0.16,0.99c-0.11,0.31-0.27,0.6-0.49,0.85c-0.22,0.25-0.49,0.47-0.82,0.66
		s-0.71,0.32-1.15,0.42v0.03c0.37,0.08,0.67,0.21,0.9,0.37c0.24,0.16,0.43,0.37,0.57,0.6c0.15,0.24,0.26,0.51,0.34,0.81
		s0.16,0.64,0.22,1.01c0.06,0.38,0.12,0.72,0.17,1.03c0.05,0.31,0.12,0.58,0.2,0.8c0.08,0.23,0.2,0.4,0.35,0.52
		c0.15,0.13,0.35,0.19,0.61,0.19c0.05,0,0.12,0,0.2-0.01c0.09,0,0.18-0.02,0.29-0.03v0.61c-0.09,0.02-0.19,0.04-0.29,0.06
		c-0.11,0.02-0.21,0.03-0.32,0.04c-0.11,0.01-0.21,0.01-0.32,0.02c-0.1,0-0.2,0-0.27,0c-0.46,0-0.82-0.05-1.08-0.15
		c-0.26-0.1-0.46-0.25-0.6-0.46s-0.24-0.47-0.3-0.78c-0.06-0.31-0.11-0.68-0.17-1.11c-0.08-0.63-0.16-1.15-0.24-1.57
		c-0.08-0.42-0.19-0.76-0.33-1.02c-0.14-0.26-0.34-0.44-0.58-0.55c-0.24-0.11-0.58-0.16-0.99-0.16h-1.5v5.07h1.67v0.64h-4.81V80.2
		h1.59V69.92h-1.59v-0.64H302.14z M300.9,74.5h1.06c0.57,0,1.05-0.05,1.44-0.14c0.38-0.1,0.69-0.25,0.93-0.45
		c0.24-0.2,0.4-0.46,0.5-0.78c0.1-0.32,0.15-0.7,0.15-1.14c0-0.37-0.04-0.69-0.12-0.95s-0.23-0.48-0.44-0.64
		c-0.21-0.16-0.51-0.28-0.89-0.36s-0.87-0.12-1.47-0.12h-1.15V74.5z"/>
	<path d="M309.1,75.17c0-0.95,0.13-1.8,0.39-2.56s0.62-1.4,1.08-1.94c0.46-0.53,1.01-0.94,1.65-1.23s1.34-0.43,2.1-0.43
		c0.75,0,1.44,0.14,2.06,0.42s1.15,0.67,1.59,1.19c0.44,0.51,0.78,1.14,1.02,1.87s0.36,1.55,0.36,2.46c0,0.89-0.12,1.71-0.35,2.47
		c-0.24,0.75-0.58,1.41-1.02,1.95s-0.99,0.97-1.63,1.28c-0.64,0.31-1.37,0.46-2.18,0.46c-0.76,0-1.46-0.14-2.08-0.41
		c-0.62-0.28-1.15-0.67-1.59-1.18c-0.44-0.51-0.78-1.14-1.02-1.87S309.1,76.08,309.1,75.17z M310.82,75.12
		c0,0.73,0.04,1.37,0.12,1.92s0.19,1.02,0.33,1.42c0.14,0.4,0.31,0.72,0.51,0.98s0.43,0.47,0.68,0.62c0.25,0.15,0.52,0.26,0.81,0.32
		c0.29,0.06,0.6,0.09,0.92,0.09s0.63-0.03,0.93-0.09c0.29-0.06,0.57-0.17,0.82-0.33c0.25-0.16,0.49-0.37,0.69-0.63
		c0.21-0.27,0.38-0.6,0.53-1.01c0.15-0.41,0.26-0.89,0.34-1.45c0.08-0.56,0.12-1.21,0.12-1.96c0-0.73-0.04-1.37-0.12-1.92
		c-0.08-0.55-0.19-1.02-0.33-1.42c-0.14-0.4-0.31-0.73-0.51-0.99c-0.2-0.26-0.42-0.47-0.67-0.62c-0.25-0.15-0.52-0.26-0.81-0.32
		c-0.29-0.06-0.6-0.09-0.92-0.09s-0.63,0.03-0.93,0.1s-0.57,0.17-0.83,0.33c-0.25,0.15-0.49,0.36-0.69,0.63
		c-0.21,0.27-0.38,0.6-0.53,1.01c-0.15,0.4-0.26,0.88-0.34,1.45C310.86,73.72,310.82,74.37,310.82,75.12z"/>
	<path d="M325.94,80.2c0.41,0,0.78-0.02,1.09-0.05c0.31-0.03,0.59-0.09,0.82-0.18c0.24-0.09,0.44-0.21,0.61-0.37
		c0.17-0.16,0.32-0.36,0.44-0.61c0.12-0.25,0.23-0.55,0.31-0.91c0.09-0.36,0.17-0.78,0.23-1.28H330l-0.17,4.02h-8.9V80.2h1.59V69.92
		h-1.59v-0.64h4.73v0.64h-1.59V80.2H325.94z"/>
	<path d="M331.55,75.17c0-0.95,0.13-1.8,0.39-2.56s0.62-1.4,1.08-1.94c0.46-0.53,1.01-0.94,1.65-1.23s1.34-0.43,2.1-0.43
		c0.75,0,1.44,0.14,2.06,0.42s1.15,0.67,1.59,1.19c0.44,0.51,0.78,1.14,1.02,1.87s0.36,1.55,0.36,2.46c0,0.89-0.12,1.71-0.35,2.47
		c-0.24,0.75-0.58,1.41-1.02,1.95s-0.99,0.97-1.63,1.28c-0.64,0.31-1.37,0.46-2.18,0.46c-0.76,0-1.46-0.14-2.08-0.41
		c-0.62-0.28-1.15-0.67-1.59-1.18c-0.44-0.51-0.78-1.14-1.02-1.87S331.55,76.08,331.55,75.17z M333.28,75.12
		c0,0.73,0.04,1.37,0.12,1.92s0.19,1.02,0.33,1.42c0.14,0.4,0.31,0.72,0.51,0.98s0.43,0.47,0.68,0.62c0.25,0.15,0.52,0.26,0.81,0.32
		c0.29,0.06,0.6,0.09,0.92,0.09s0.63-0.03,0.93-0.09c0.29-0.06,0.57-0.17,0.82-0.33c0.25-0.16,0.49-0.37,0.69-0.63
		c0.21-0.27,0.38-0.6,0.53-1.01c0.15-0.41,0.26-0.89,0.34-1.45c0.08-0.56,0.12-1.21,0.12-1.96c0-0.73-0.04-1.37-0.12-1.92
		c-0.08-0.55-0.19-1.02-0.33-1.42c-0.14-0.4-0.31-0.73-0.51-0.99c-0.2-0.26-0.42-0.47-0.67-0.62c-0.25-0.15-0.52-0.26-0.81-0.32
		c-0.29-0.06-0.6-0.09-0.92-0.09s-0.63,0.03-0.93,0.1s-0.57,0.17-0.83,0.33c-0.25,0.15-0.49,0.36-0.69,0.63
		c-0.21,0.27-0.38,0.6-0.53,1.01c-0.15,0.4-0.26,0.88-0.34,1.45C333.32,73.72,333.28,74.37,333.28,75.12z"/>
	<path d="M352.66,80.37c-0.25,0.13-0.53,0.24-0.83,0.33c-0.3,0.09-0.6,0.17-0.9,0.23c-0.3,0.06-0.6,0.1-0.9,0.13
		s-0.57,0.04-0.83,0.04c-0.83,0-1.57-0.14-2.22-0.41c-0.65-0.28-1.21-0.67-1.66-1.18c-0.45-0.51-0.8-1.13-1.04-1.86
		c-0.24-0.73-0.36-1.56-0.36-2.47c0-0.94,0.13-1.79,0.39-2.54c0.26-0.76,0.63-1.41,1.11-1.94s1.06-0.95,1.75-1.24
		c0.68-0.29,1.44-0.43,2.29-0.43c0.48,0,1,0.05,1.54,0.14s1.07,0.22,1.56,0.38l0.09,2.9h-0.56c-0.05-0.58-0.15-1.05-0.32-1.41
		c-0.17-0.36-0.37-0.65-0.61-0.85c-0.24-0.2-0.52-0.34-0.83-0.41c-0.31-0.07-0.64-0.11-0.98-0.11c-0.36,0-0.7,0.03-1.02,0.1
		s-0.62,0.17-0.89,0.33s-0.52,0.37-0.74,0.64c-0.22,0.27-0.41,0.6-0.56,1.01c-0.16,0.41-0.28,0.89-0.36,1.45s-0.12,1.21-0.12,1.95
		c0,0.73,0.04,1.37,0.12,1.92s0.19,1.02,0.33,1.41c0.15,0.39,0.32,0.72,0.53,0.98c0.21,0.26,0.44,0.46,0.7,0.61s0.54,0.25,0.85,0.31
		c0.31,0.06,0.63,0.09,0.98,0.09c0.34,0,0.67-0.01,1-0.04c0.33-0.03,0.64-0.1,0.93-0.21v-3.52h-1.75v-0.64h4.73v0.64h-1.43V80.37z"
		/>
	<path d="M358.43,69.92V80.2h1.59v0.64h-4.73V80.2h1.59V69.92h-1.59v-0.64h4.73v0.64H358.43z"/>
	<path d="M364.09,80.2v0.64h-3.87V80.2h1.51l4.13-11.04h0.63l3.88,11.04h1.57v0.64h-4.89V80.2h1.65l-1.19-3.4h-3.75l-1.26,3.4
		H364.09z M365.69,71.67l-1.68,4.48h3.28l-1.57-4.48H365.69z"/>
</g>
</svg>
